<svg xmlns="http://www.w3.org/2000/svg" width="512" height="512" id="broom">
  <path d="M121.083 482.187C100.752 470.766 75.1069 450.14 59.5041 431.949 45.3796 415.482 36.0606 395.933 26.0438 376.877L16.4381 358.709C11.9318 350.135 4.26265 338.038 9.31344 328.237 13.2959 320.51 22.5323 320.87 30.0052 319.329 58.295 313.497 84.8434 296.68 108.5 280.744L143.784 254.283C144.57 253.616 145.539 252.721 146.559 252.476L147.625 252.241C149.206 240.263 163.919 233.677 174.625 233.239L181.14 233.25C182.209 233.273 183.594 233.475 184.614 233.225 188.343 223.723 198.08 218.62 208.038 218.726 217.695 218.828 224.144 224.895 230.525 231.443 231.645 230.755 232.764 229.051 233.741 228.065L358.388 107.958 451.093 19.2706C458.2 12.3209 465.573 3.16159 476.135 2.09454L479.25 2.02415C492.287 2.24472 502.414 13.2855 501.74 26.1842 501.256 35.4563 493.067 42.144 486.768 47.9736L332.549 195.905 262.742 262.979C263.742 264.339 265.373 265.522 266.567 266.774L275.89 276.482C281.159 281.754 287.608 286.892 289.554 294.426 291.894 303.483 287.448 313.462 280.659 319.508 274.529 324.966 277.234 320.164 277.531 329.347 277.834 338.695 274.55 348.636 267.51 355.072 261.762 360.327 262.582 360.274 259.116 367.276L232.843 422.458 224.875 443.316C224.577 444.303 224.482 445.527 223.918 446.394L249.948 446.748C253.9 446.748 258.365 446.348 262.25 446.868 266.139 447.388 268.897 452.408 268.335 456.033L268.275 456.375C267.327 462.14 261.709 462.449 257.161 462.459L218.487 462.423C217.606 463.477 217.232 465.77 216.782 467.12L209.501 495.25C206.095 512.876 196.276 510.003 182.514 506.286 161.271 500.549 140.288 493.035 121.083 482.187zM477.989 17.7914C472.189 19.1433 468.09 24.7794 463.962 28.7054L241.903 242.206 250.892 250.884 251.875 251.761C253.325 251.034 254.983 248.912 256.187 247.722L475.499 37.2358C477.778 35.1024 480.188 33.0419 482.337 30.7822 487.561 25.2908 485.734 18.5372 478.142 17.8128L477.989 17.7914zM207.295 233.78C202.904 234.94 200.151 236.687 197.33 240.23 199.462 243.415 202.483 246.02 205.212 248.687L260.388 302.371C262.43 304.334 264.42 306.41 266.608 308.21 267.166 308.643 268.351 309.837 269.004 309.802 279.664 298.452 273.234 295.707 264.21 286.585L213.64 236.74C211.964 235.222 210.017 233.679 207.64 233.756L207.295 233.78zM177.194 248.109C172.727 248.374 161.476 251.575 161.061 257.25 162.679 261.97 167.55 265.938 170.841 269.498L228.413 326.68 241.293 337.888C243.66 339.776 246.111 341.783 248.783 343.217 250.214 344.006 251.952 345 253.582 345.23 260.187 342.053 263.197 334.126 261.834 327.125L261.771 326.782C261.477 325.331 260.344 324.202 259.355 323.169L192.29 257.598C187.515 252.876 184.439 247.935 177.194 248.109zM149.522 269.41C124.892 290.639 85.6721 317.065 54.2422 328.43 44.075 332.106 33.8444 334.235 23.2331 336.111 25.3262 342.359 28.3924 348.075 31.5119 353.852 47.7476 351.281 59.7809 347.875 74.6603 340.694L83.2212 336.235C88.3774 333.346 98.5914 328.744 99.8857 338.414 100.816 345.363 96.3612 347.07 91.0949 349.911 74.683 358.762 57.4824 365.972 38.8327 368.033 45.5711 379.29 57.9674 407.506 66.3487 414.713 82.3232 406.792 98.3652 394.601 111.719 383.03L120.368 375.205C122.523 373.157 124.609 370.762 127.093 369.121 133.577 364.838 144.432 373.652 134.859 383.153L128.048 389.424C112.099 403.585 95.2896 417.302 76.1356 426.954L83.3581 434.077C90.9708 441.564 109.091 457.208 119.077 461.985L153.441 413.226C156.565 408.694 161.356 400.16 168.306 405.569 174.364 410.283 170.428 416.149 167.249 420.859L134.105 467.375C133.54 468.245 132.593 469.434 132.37 470.447 150.099 481.381 174.149 488.422 194.365 492.926L199.899 469.511 208.214 443.721C215.667 422.311 224.427 401.454 234.565 381.172L245.39 359.686C232.554 354.784 200.608 321.639 190.482 311.584L149.522 269.41zM372.488 462.756C359.244 462.528 357.68 447.436 372.426 446.608 374.987 446.682 377.436 446.574 379.566 448.262 383.082 451.051 383.551 457.098 380.492 460.395 378.439 462.608 375.292 462.669 372.488 462.756z"></path>
  <path d="M351.112 462.29L336.687 462.455C332.809 462.453 327.317 463.157 323.969 460.981C318.346 457.326 319.679 448.157 326.684 447.12L330.322 446.861C331.356 447.065 333.358 446.786 334.476 446.785L345.989 446.787C351.48 446.797 358.602 446.09 360.493 452.742C361.804 457.35 359.619 461.29 354.934 462.087L351.112 462.29Z"></path>
</svg>
